<?xml version="1.0" encoding="UTF-8" standalone="no"?>
<!DOCTYPE svg PUBLIC "-//W3C//DTD SVG 1.1//EN" "http://www.w3.org/Graphics/SVG/1.1/DTD/svg11.dtd">
<svg version="1.1" xmlns="http://www.w3.org/2000/svg" xmlns:xlink="http://www.w3.org/1999/xlink" preserveAspectRatio="xMidYMid meet" viewBox="0 0 250 400" width="250" height="400"><defs><path d="M2.5 2.85L247.5 2.85L247.5 397.15L2.5 397.15L2.5 2.85Z" id="dikZWbEMe"></path><path d="M67.52 179.52C55.16 190.46 50.59 211.48 54.57 227.17C58.54 242.87 75.68 239.23 85.46 226.91C95.24 214.59 119.33 223.47 133.54 230.69C147.76 237.91 178.2 234.5 185.39 221.16C192.59 207.81 201.03 187.81 194.47 171.09C190.1 159.94 181.09 160.01 167.44 171.32C153.49 181.23 138.33 181.36 121.96 171.71C105.58 162.06 90.28 162.19 76.05 172.1C78.61 169.75 75.77 172.22 67.52 179.52Z" id="b9R45mJylw"></path></defs><g><g><g><use xlink:href="#dikZWbEMe" opacity="1" fill="#ffffff" fill-opacity="1"></use><g><use xlink:href="#dikZWbEMe" opacity="1" fill-opacity="0" stroke="#000000" stroke-width="6" stroke-opacity="1"></use></g></g><g><use xlink:href="#b9R45mJylw" opacity="1" fill="#f1f0f2" fill-opacity="0.01"></use><g><use xlink:href="#b9R45mJylw" opacity="1" fill-opacity="0" stroke="#f22e46" stroke-width="4" stroke-opacity="1"></use></g></g></g></g></svg>