<?xml version="1.0" encoding="UTF-8" standalone="no"?>
<!DOCTYPE svg PUBLIC "-//W3C//DTD SVG 1.1//EN" "http://www.w3.org/Graphics/SVG/1.1/DTD/svg11.dtd">
<svg version="1.1" xmlns="http://www.w3.org/2000/svg" xmlns:xlink="http://www.w3.org/1999/xlink" preserveAspectRatio="xMidYMid meet" viewBox="0 0 250 400" width="250" height="400"><defs><path d="M2.5 2.85L247.5 2.85L247.5 397.15L2.5 397.15L2.5 2.85Z" id="bu5PhAMRz"></path><path d="M179.23 170.33C184.75 170.33 189.23 174.8 189.23 180.33C189.23 190.2 189.23 209.8 189.23 219.67C189.23 225.2 184.75 229.67 179.23 229.67C155.54 229.67 94.46 229.67 70.77 229.67C65.25 229.67 60.77 225.2 60.77 219.67C60.77 209.8 60.77 190.2 60.77 180.33C60.77 174.8 65.25 170.33 70.77 170.33C94.46 170.33 155.54 170.33 179.23 170.33Z" id="a2Q9Aie7ir"></path></defs><g><g><g><use xlink:href="#bu5PhAMRz" opacity="1" fill="#ffffff" fill-opacity="1"></use><g><use xlink:href="#bu5PhAMRz" opacity="1" fill-opacity="0" stroke="#000000" stroke-width="6" stroke-opacity="1"></use></g></g><g><use xlink:href="#a2Q9Aie7ir" opacity="1" fill="#a0efee" fill-opacity="0"></use><g><use xlink:href="#a2Q9Aie7ir" opacity="1" fill-opacity="0" stroke="#a0efee" stroke-width="4" stroke-opacity="1"></use></g></g></g></g></svg>