<?xml version="1.0" encoding="UTF-8" standalone="no"?>
<!DOCTYPE svg PUBLIC "-//W3C//DTD SVG 1.1//EN" "http://www.w3.org/Graphics/SVG/1.1/DTD/svg11.dtd">
<svg version="1.1" xmlns="http://www.w3.org/2000/svg" xmlns:xlink="http://www.w3.org/1999/xlink" preserveAspectRatio="xMidYMid meet" viewBox="0 0 250 400" width="250" height="400"><defs><path d="M2.5 2.85L247.5 2.85L247.5 397.15L2.5 397.15L2.5 2.85Z" id="i1muChaUY"></path><path d="M67.52 181.17C55.16 192.11 50.59 213.12 54.57 228.82C58.54 244.52 75.68 240.88 85.46 228.56C95.24 216.24 119.33 225.12 133.54 232.34C147.76 239.56 178.2 236.15 185.39 222.81C192.59 209.46 201.03 189.46 194.47 172.74C190.1 161.59 181.09 161.66 167.44 172.97C153.49 182.88 138.33 183.01 121.96 173.36C105.58 163.71 90.28 163.84 76.05 173.75C78.61 171.4 75.77 173.87 67.52 181.17Z" id="h11D1mQ0yj"></path><path d="M55.75 231.15L55.54 202.25" id="adwyXwr7c"></path><path d="M65.74 239.91L65.33 183.29" id="aEYGicFex"></path><path d="M75.64 237.13L75.19 174.35" id="bZaL2402b"></path><path d="M85.5 227.95L85.07 169.27" id="boBYDBtsY"></path><path d="M95.39 223.14L94.97 165.93" id="a4JOJFLevC"></path><path d="M105.3 221.82L104.91 167.61" id="b4bCNndrrX"></path><path d="M115.25 224.74L114.84 169.02" id="cbfKa5WZe"></path><path d="M125.19 227.61L124.81 175.11" id="e39TBpoATb"></path><path d="M135.15 232.24L134.76 179.74" id="a2qGQCP0xn"></path><path d="M145.1 236.54L144.69 180.25" id="h1rCKu6Ha"></path><path d="M155.02 236.45L154.62 180.75" id="aAChVxcs9"></path><path d="M164.93 234.35L164.5 174.77" id="cjXJ8VB3"></path><path d="M174.83 230.72L174.37 168.51" id="eq3aI8KMN"></path><path d="M184.69 222.38L184.28 165.75" id="bz6Lkqq11"></path><path d="M194.46 201.06L194.25 172.74" id="fIbTQEp94"></path></defs><g><g><g><use xlink:href="#i1muChaUY" opacity="1" fill="#ffffff" fill-opacity="1"></use><g><use xlink:href="#i1muChaUY" opacity="1" fill-opacity="0" stroke="#000000" stroke-width="6" stroke-opacity="1"></use></g></g><g><use xlink:href="#h11D1mQ0yj" opacity="1" fill="#a0efee" fill-opacity="1"></use><g><use xlink:href="#h11D1mQ0yj" opacity="1" fill-opacity="0" stroke="#a0efee" stroke-width="4" stroke-opacity="1"></use></g></g><g><g><use xlink:href="#adwyXwr7c" opacity="1" fill-opacity="0" stroke="#a0efee" stroke-width="4" stroke-opacity="1"></use></g></g><g><g><use xlink:href="#aEYGicFex" opacity="1" fill-opacity="0" stroke="#a0efee" stroke-width="4" stroke-opacity="1"></use></g></g><g><g><use xlink:href="#bZaL2402b" opacity="1" fill-opacity="0" stroke="#a0efee" stroke-width="4" stroke-opacity="1"></use></g></g><g><g><use xlink:href="#boBYDBtsY" opacity="1" fill-opacity="0" stroke="#a0efee" stroke-width="4" stroke-opacity="1"></use></g></g><g><g><use xlink:href="#a4JOJFLevC" opacity="1" fill-opacity="0" stroke="#a0efee" stroke-width="4" stroke-opacity="1"></use></g></g><g><g><use xlink:href="#b4bCNndrrX" opacity="1" fill-opacity="0" stroke="#a0efee" stroke-width="4" stroke-opacity="1"></use></g></g><g><g><use xlink:href="#cbfKa5WZe" opacity="1" fill-opacity="0" stroke="#a0efee" stroke-width="4" stroke-opacity="1"></use></g></g><g><g><use xlink:href="#e39TBpoATb" opacity="1" fill-opacity="0" stroke="#a0efee" stroke-width="4" stroke-opacity="1"></use></g></g><g><g><use xlink:href="#a2qGQCP0xn" opacity="1" fill-opacity="0" stroke="#a0efee" stroke-width="4" stroke-opacity="1"></use></g></g><g><g><use xlink:href="#h1rCKu6Ha" opacity="1" fill-opacity="0" stroke="#a0efee" stroke-width="4" stroke-opacity="1"></use></g></g><g><g><use xlink:href="#aAChVxcs9" opacity="1" fill-opacity="0" stroke="#a0efee" stroke-width="4" stroke-opacity="1"></use></g></g><g><g><use xlink:href="#cjXJ8VB3" opacity="1" fill-opacity="0" stroke="#a0efee" stroke-width="4" stroke-opacity="1"></use></g></g><g><g><use xlink:href="#eq3aI8KMN" opacity="1" fill-opacity="0" stroke="#a0efee" stroke-width="4" stroke-opacity="1"></use></g></g><g><g><use xlink:href="#bz6Lkqq11" opacity="1" fill-opacity="0" stroke="#a0efee" stroke-width="4" stroke-opacity="1"></use></g></g><g><g><use xlink:href="#fIbTQEp94" opacity="1" fill-opacity="0" stroke="#a0efee" stroke-width="4" stroke-opacity="1"></use></g></g></g></g></svg>