<?xml version="1.0" encoding="UTF-8" standalone="no"?>
<!DOCTYPE svg PUBLIC "-//W3C//DTD SVG 1.1//EN" "http://www.w3.org/Graphics/SVG/1.1/DTD/svg11.dtd">
<svg version="1.1" xmlns="http://www.w3.org/2000/svg" xmlns:xlink="http://www.w3.org/1999/xlink" preserveAspectRatio="xMidYMid meet" viewBox="0 0 250 400" width="250" height="400"><defs><path d="M2.5 2.85L247.5 2.85L247.5 397.15L2.5 397.15L2.5 2.85Z" id="b5XaIiQPKD"></path><path d="M428.27 42.89L427.17 43.99L426.11 45.13L425.09 46.32L424.1 47.55L423.15 48.81L422.23 50.12L421.35 51.46L420.51 52.83L419.7 54.24L418.93 55.67L418.2 57.13L417.51 58.62L416.85 60.14L416.23 61.67L415.64 63.23L415.09 64.8L414.58 66.4L414.11 68.01L413.68 69.63L413.28 71.26L412.92 72.9L412.6 74.55L412.31 76.21L412.07 77.87L411.86 79.54L411.69 81.2L411.56 82.86L411.47 84.53L411.41 86.18L411.4 87.83L411.42 89.47L411.48 91.1L411.59 92.72L411.73 94.32L411.9 95.91L412.12 97.48L412.38 99.03L412.68 100.56L413.02 102.07L413.4 103.52L413.85 104.88L414.35 106.15L414.91 107.33L415.52 108.43L416.18 109.44L416.88 110.37L417.63 111.21L418.42 111.98L419.26 112.66L420.13 113.26L421.03 113.79L421.97 114.24L422.94 114.62L423.94 114.92L424.96 115.15L426.01 115.3L427.08 115.39L428.16 115.41L429.26 115.36L430.38 115.24L431.51 115.06L432.65 114.82L433.79 114.51L434.94 114.14L436.09 113.71L437.24 113.22L438.38 112.67L439.52 112.07L440.66 111.41L441.78 110.7L442.89 109.94L443.99 109.12L445.07 108.25L446.13 107.34L447.17 106.38L448.19 105.37L449.18 104.31L450.13 103.21L451.06 102.07L452.01 100.96L453.01 99.94L454.08 99.03L455.2 98.2L456.38 97.47L457.61 96.82L458.89 96.26L460.21 95.78L461.58 95.38L462.98 95.05L464.43 94.8L465.91 94.62L467.42 94.51L468.96 94.47L470.53 94.49L472.12 94.57L473.74 94.7L475.37 94.89L477.01 95.13L478.67 95.43L480.34 95.77L482.02 96.15L483.7 96.57L485.38 97.03L487.06 97.53L488.74 98.06L490.41 98.62L492.07 99.21L493.72 99.82L495.35 100.45L496.97 101.1L498.56 101.77L500.13 102.46L501.68 103.15L503.19 103.85L504.68 104.56L506.13 105.27L507.54 105.98L508.92 106.68L510.25 107.39L511.59 108.06L513.01 108.68L514.49 109.25L516.03 109.78L517.63 110.25L519.28 110.68L520.99 111.05L522.73 111.38L524.51 111.65L526.33 111.88L528.18 112.05L530.05 112.18L531.94 112.26L533.85 112.29L535.77 112.27L537.7 112.2L539.63 112.08L541.56 111.91L543.48 111.69L545.39 111.43L547.28 111.11L549.15 110.75L551 110.34L552.82 109.87L554.6 109.36L556.35 108.8L558.05 108.19L559.71 107.54L561.31 106.83L562.86 106.08L564.34 105.27L565.76 104.42L567.11 103.52L568.38 102.58L569.57 101.58L570.68 100.53L571.7 99.44L572.63 98.3L573.46 97.11L574.19 95.87L574.86 94.59L575.54 93.28L576.22 91.95L576.91 90.58L577.59 89.19L578.27 87.77L578.94 86.33L579.6 84.86L580.26 83.37L580.91 81.86L581.54 80.33L582.16 78.78L582.76 77.22L583.34 75.64L583.9 74.04L584.44 72.43L584.96 70.8L585.45 69.17L585.91 67.52L586.34 65.86L586.74 64.2L587.11 62.52L587.44 60.85L587.73 59.16L587.98 57.48L588.2 55.79L588.37 54.1L588.49 52.41L588.57 50.72L588.6 49.03L588.58 47.35L588.51 45.67L588.38 43.99L588.2 42.33L587.96 40.67L587.65 39.02L587.29 37.38L586.86 35.75L586.37 34.13L585.81 32.53L585.4 31.5L584.97 30.51L584.52 29.58L584.05 28.71L583.56 27.88L583.04 27.11L582.5 26.39L581.94 25.73L581.36 25.12L580.76 24.56L580.13 24.05L579.49 23.6L578.82 23.2L578.13 22.86L577.41 22.57L576.68 22.33L575.92 22.14L575.15 22.01L574.35 21.93L573.52 21.9L572.68 21.93L571.82 22.01L570.93 22.14L570.02 22.33L569.09 22.57L568.14 22.86L567.16 23.2L566.17 23.6L565.15 24.05L564.11 24.56L563.05 25.12L561.97 25.73L560.86 26.39L559.74 27.11L558.59 27.88L557.42 28.71L556.23 29.58L555.01 30.51L553.78 31.5L552.52 32.53L551.22 33.44L549.92 34.3L548.61 35.11L547.3 35.88L545.98 36.6L544.66 37.28L543.33 37.9L541.99 38.49L540.65 39.02L539.31 39.51L537.96 39.95L536.6 40.35L535.24 40.69L533.88 41L532.51 41.25L531.13 41.46L529.75 41.62L528.36 41.74L526.97 41.81L525.57 41.83L524.17 41.81L522.76 41.74L521.35 41.62L519.93 41.46L518.5 41.25L517.07 41L515.64 40.69L514.2 40.35L512.75 39.95L511.3 39.51L509.85 39.02L508.39 38.49L506.92 37.9L505.45 37.28L503.97 36.6L502.49 35.88L501 35.11L499.51 34.3L498.01 33.44L496.51 32.53L495 31.63L493.5 30.76L492.01 29.95L490.52 29.18L489.03 28.46L487.55 27.79L486.08 27.16L484.61 26.58L483.14 26.04L481.68 25.56L480.22 25.11L478.77 24.72L477.32 24.37L475.88 24.07L474.44 23.81L473 23.6L471.57 23.44L470.15 23.32L468.73 23.25L467.31 23.23L465.9 23.25L464.49 23.32L463.09 23.44L461.69 23.6L460.3 23.81L458.91 24.07L457.53 24.37L456.15 24.72L454.78 25.11L453.41 25.56L452.04 26.04L450.68 26.58L449.33 27.16L447.97 27.79L446.63 28.46L445.29 29.18L443.95 29.95L442.62 30.76L441.29 31.63L439.97 32.53L440.19 32.32L440.39 32.13L440.57 31.97L440.72 31.83L440.84 31.71L440.94 31.61L441.01 31.54L441.06 31.49L441.09 31.46L441.09 31.45L441.06 31.47L441.01 31.51L440.94 31.57L440.83 31.66L440.71 31.76L440.56 31.89L440.38 32.05L440.18 32.22L439.95 32.42L439.7 32.64L439.42 32.89L439.12 33.15L438.8 33.44L438.44 33.75L438.07 34.09L437.66 34.45L437.24 34.83L436.78 35.23L436.31 35.66L435.8 36.1L435.28 36.57L434.72 37.07L434.15 37.58L433.54 38.12L432.91 38.68L432.26 39.27L431.58 39.88L430.88 40.51L430.15 41.16L429.4 41.83L429.4 41.83L428.27 42.89Z" id="akZYu0xBe"></path><path d="M414.46 105.03L414.46 68.41" id="e1XElQdJ16"></path><path d="M426.68 116.25L426.68 44.5" id="a3Dpm1vClw"></path><path d="M438.9 112.83L438.9 33.29" id="c16kTB5lp"></path><path d="M451.12 101.3L451.12 26.96" id="g5lRaPwizO"></path><path d="M463.34 95.32L463.34 22.82" id="bIdYyjFdO"></path><path d="M475.56 93.74L475.56 25.07" id="b1FOmm6IKa"></path><path d="M487.78 97.56L487.78 26.96" id="b1r0duv8uG"></path><path d="M500 101.3L500 34.78" id="g1J1IE5Xgk"></path><path d="M512.22 107.28L512.22 40.76" id="bwNbuAXes"></path><path d="M524.44 112.83L524.44 41.51" id="c1hAnBBLEX"></path><path d="M536.66 112.83L536.66 42.26" id="d2UBQzcYf"></path><path d="M548.88 110.27L548.88 34.78" id="ahKxiEH1Y"></path><path d="M561.1 105.78L561.1 26.96" id="aKtMJMKcy"></path><path d="M573.32 95.32L573.32 23.57" id="a160TUzKub"></path><path d="M585.54 68.41L585.54 32.54" id="ioyG4dC9"></path><path d="M459.52 67.89L458.42 68.99L457.36 70.13L456.34 71.32L455.35 72.55L454.4 73.81L453.48 75.12L452.6 76.46L451.76 77.83L450.95 79.24L450.18 80.67L449.45 82.13L448.76 83.62L448.1 85.14L447.48 86.67L446.89 88.23L446.34 89.8L445.83 91.4L445.36 93.01L444.93 94.63L444.53 96.26L444.17 97.9L443.85 99.55L443.56 101.21L443.32 102.87L443.11 104.54L442.94 106.2L442.81 107.86L442.72 109.53L442.66 111.18L442.65 112.83L442.67 114.47L442.73 116.1L442.84 117.72L442.98 119.32L443.15 120.91L443.37 122.48L443.63 124.03L443.93 125.56L444.27 127.07L444.65 128.52L445.1 129.88L445.6 131.15L446.16 132.33L446.77 133.43L447.43 134.44L448.13 135.37L448.88 136.21L449.67 136.98L450.51 137.66L451.38 138.26L452.28 138.79L453.22 139.24L454.19 139.62L455.19 139.92L456.21 140.15L457.26 140.3L458.33 140.39L459.41 140.41L460.51 140.36L461.63 140.24L462.76 140.06L463.9 139.82L465.04 139.51L466.19 139.14L467.34 138.71L468.49 138.22L469.63 137.67L470.77 137.07L471.91 136.41L473.03 135.7L474.14 134.94L475.24 134.12L476.32 133.25L477.38 132.34L478.42 131.38L479.44 130.37L480.43 129.31L481.38 128.21L482.31 127.07L483.26 125.96L484.26 124.94L485.33 124.03L486.45 123.2L487.63 122.47L488.86 121.82L490.14 121.26L491.46 120.78L492.83 120.38L494.23 120.05L495.68 119.8L497.16 119.62L498.67 119.51L500.21 119.47L501.78 119.49L503.37 119.57L504.99 119.7L506.62 119.89L508.26 120.13L509.92 120.43L511.59 120.77L513.27 121.15L514.95 121.57L516.63 122.03L518.31 122.53L519.99 123.06L521.66 123.62L523.32 124.21L524.97 124.82L526.6 125.45L528.22 126.1L529.81 126.77L531.38 127.46L532.93 128.15L534.44 128.85L535.93 129.56L537.38 130.27L538.79 130.98L540.17 131.68L541.5 132.39L542.84 133.06L544.26 133.68L545.74 134.25L547.28 134.78L548.88 135.25L550.53 135.68L552.24 136.05L553.98 136.38L555.76 136.65L557.58 136.88L559.43 137.05L561.3 137.18L563.19 137.26L565.1 137.29L567.02 137.27L568.95 137.2L570.88 137.08L572.81 136.91L574.73 136.69L576.64 136.43L578.53 136.11L580.4 135.75L582.25 135.34L584.07 134.87L585.85 134.36L587.6 133.8L589.3 133.19L590.96 132.54L592.56 131.83L594.11 131.08L595.59 130.27L597.01 129.42L598.36 128.52L599.63 127.58L600.82 126.58L601.93 125.53L602.95 124.44L603.88 123.3L604.71 122.11L605.44 120.87L606.11 119.59L606.79 118.28L607.47 116.95L608.16 115.58L608.84 114.19L609.52 112.77L610.19 111.33L610.85 109.86L611.51 108.37L612.16 106.86L612.79 105.33L613.41 103.78L614.01 102.22L614.59 100.64L615.15 99.04L615.69 97.43L616.21 95.8L616.7 94.17L617.16 92.52L617.59 90.86L617.99 89.2L618.36 87.52L618.69 85.85L618.98 84.16L619.23 82.48L619.45 80.79L619.62 79.1L619.74 77.41L619.82 75.72L619.85 74.03L619.83 72.35L619.76 70.67L619.63 68.99L619.45 67.33L619.21 65.67L618.9 64.02L618.54 62.38L618.11 60.75L617.62 59.13L617.06 57.53L616.65 56.5L616.22 55.51L615.77 54.58L615.3 53.71L614.81 52.88L614.29 52.11L613.75 51.39L613.19 50.73L612.61 50.12L612.01 49.56L611.38 49.05L610.74 48.6L610.07 48.2L609.38 47.86L608.66 47.57L607.93 47.33L607.17 47.14L606.4 47.01L605.6 46.93L604.77 46.9L603.93 46.93L603.07 47.01L602.18 47.14L601.27 47.33L600.34 47.57L599.39 47.86L598.41 48.2L597.42 48.6L596.4 49.05L595.36 49.56L594.3 50.12L593.22 50.73L592.11 51.39L590.99 52.11L589.84 52.88L588.67 53.71L587.48 54.58L586.26 55.51L585.03 56.5L583.77 57.53L582.47 58.44L581.17 59.3L579.86 60.11L578.55 60.88L577.23 61.6L575.91 62.28L574.58 62.9L573.24 63.49L571.9 64.02L570.56 64.51L569.21 64.95L567.85 65.35L566.49 65.69L565.13 66L563.76 66.25L562.38 66.46L561 66.62L559.61 66.74L558.22 66.81L556.82 66.83L555.42 66.81L554.01 66.74L552.6 66.62L551.18 66.46L549.75 66.25L548.32 66L546.89 65.69L545.45 65.35L544 64.95L542.55 64.51L541.1 64.02L539.64 63.49L538.17 62.9L536.7 62.28L535.22 61.6L533.74 60.88L532.25 60.11L530.76 59.3L529.26 58.44L527.76 57.53L526.25 56.63L524.75 55.76L523.26 54.95L521.77 54.18L520.28 53.46L518.8 52.79L517.33 52.16L515.86 51.58L514.39 51.04L512.93 50.56L511.47 50.11L510.02 49.72L508.57 49.37L507.13 49.07L505.69 48.81L504.25 48.6L502.82 48.44L501.4 48.32L499.98 48.25L498.56 48.23L497.15 48.25L495.74 48.32L494.34 48.44L492.94 48.6L491.55 48.81L490.16 49.07L488.78 49.37L487.4 49.72L486.03 50.11L484.66 50.56L483.29 51.04L481.93 51.58L480.58 52.16L479.22 52.79L477.88 53.46L476.54 54.18L475.2 54.95L473.87 55.76L472.54 56.63L471.22 57.53L471.44 57.32L471.64 57.13L471.82 56.97L471.97 56.83L472.09 56.71L472.19 56.61L472.26 56.54L472.31 56.49L472.34 56.46L472.34 56.45L472.31 56.47L472.26 56.51L472.19 56.57L472.08 56.66L471.96 56.76L471.81 56.89L471.63 57.05L471.43 57.22L471.2 57.42L470.95 57.64L470.67 57.89L470.37 58.15L470.05 58.44L469.69 58.75L469.32 59.09L468.91 59.45L468.49 59.83L468.03 60.23L467.56 60.66L467.05 61.1L466.53 61.57L465.97 62.07L465.4 62.58L464.79 63.12L464.16 63.68L463.51 64.27L462.83 64.88L462.13 65.51L461.4 66.16L460.65 66.83L460.65 66.83L459.52 67.89Z" id="a31073U3Jl"></path><path d="M445.71 130.03L445.71 93.41" id="b2y3e1hfdv"></path><path d="M457.93 141.25L457.93 69.5" id="c1hp4RnNcq"></path><path d="M470.15 137.83L470.15 58.29" id="b59YMfuiMa"></path><path d="M482.37 126.3L482.37 51.96" id="b1zuWfTSPp"></path><path d="M494.59 120.32L494.59 47.82" id="b304oTh3ja"></path><path d="M506.81 118.74L506.81 50.07" id="c2Fp10BeVQ"></path><path d="M519.03 122.56L519.03 51.96" id="a11j4hMGZZ"></path><path d="M531.25 126.3L531.25 59.78" id="a8DcxnMon"></path><path d="M543.47 132.28L543.47 65.76" id="b7iwwschQ"></path><path d="M555.69 137.83L555.69 66.51" id="a4LHwxvtR"></path><path d="M567.91 137.83L567.91 67.26" id="a2vsMm7TKz"></path><path d="M580.13 135.27L580.13 59.78" id="b3kD3PBceZ"></path><path d="M592.35 130.78L592.35 51.96" id="gZ38nlegJ"></path><path d="M604.57 120.32L604.57 48.57" id="cQYaksG86"></path><path d="M616.79 93.41L616.79 57.54" id="daktOa8pB"></path><path d="M68.57 179.52C56.21 190.46 51.64 211.48 55.61 227.17C59.59 242.87 76.73 239.23 86.51 226.91C96.29 214.59 120.38 223.47 134.59 230.69C148.8 237.91 179.24 234.5 186.44 221.16C193.64 207.81 202.07 187.81 195.52 171.09C191.14 159.94 182.13 160.01 168.49 171.32C154.54 181.23 139.38 181.36 123.01 171.71C106.63 162.06 91.33 162.19 77.1 172.1C79.65 169.75 76.81 172.22 68.57 179.52Z" id="c1e6KYdMav"></path><path d="M56.8 229.5L56.59 200.6" id="b2Apl2P1vq"></path><path d="M66.79 238.27L66.38 181.64" id="b2WrTsnibu"></path><path d="M76.69 235.48L76.24 172.71" id="c2eTJs73w8"></path><path d="M86.55 226.3L86.12 167.63" id="b1kmyAZlru"></path><path d="M96.44 221.49L96.02 164.28" id="c2exObzOsM"></path><path d="M106.35 220.17L105.96 165.96" id="aao7taJov"></path><path d="M116.29 223.09L115.89 167.37" id="asF7pqdrW"></path><path d="M126.24 225.96L125.86 173.46" id="a7Hn58PgCg"></path><path d="M136.19 230.59L135.81 178.09" id="c3sEsLuz6v"></path><path d="M146.15 234.89L145.74 178.6" id="e1jiUzZNa9"></path><path d="M156.07 234.8L155.67 179.1" id="cTH6of7D5"></path><path d="M165.98 232.7L165.54 173.12" id="a1eCojUyjB"></path><path d="M175.87 229.07L175.42 166.86" id="b2W34sgxh"></path><path d="M185.74 220.73L185.32 164.1" id="ehkj03YrA"></path><path d="M195.5 199.41L195.3 171.09" id="a1DUtQf1b5"></path></defs><g><g><g><use xlink:href="#b5XaIiQPKD" opacity="1" fill="#ffffff" fill-opacity="1"></use><g><use xlink:href="#b5XaIiQPKD" opacity="1" fill-opacity="0" stroke="#000000" stroke-width="6" stroke-opacity="1"></use></g></g><g><g><use xlink:href="#akZYu0xBe" opacity="1" fill-opacity="0" stroke="#a0efee" stroke-width="6" stroke-opacity="1"></use></g></g><g><g><use xlink:href="#e1XElQdJ16" opacity="1" fill-opacity="0" stroke="#a0efee" stroke-width="6" stroke-opacity="1"></use></g></g><g><g><use xlink:href="#a3Dpm1vClw" opacity="1" fill-opacity="0" stroke="#a0efee" stroke-width="6" stroke-opacity="1"></use></g></g><g><g><use xlink:href="#c16kTB5lp" opacity="1" fill-opacity="0" stroke="#a0efee" stroke-width="6" stroke-opacity="1"></use></g></g><g><g><use xlink:href="#g5lRaPwizO" opacity="1" fill-opacity="0" stroke="#a0efee" stroke-width="6" stroke-opacity="1"></use></g></g><g><g><use xlink:href="#bIdYyjFdO" opacity="1" fill-opacity="0" stroke="#a0efee" stroke-width="6" stroke-opacity="1"></use></g></g><g><g><use xlink:href="#b1FOmm6IKa" opacity="1" fill-opacity="0" stroke="#a0efee" stroke-width="6" stroke-opacity="1"></use></g></g><g><g><use xlink:href="#b1r0duv8uG" opacity="1" fill-opacity="0" stroke="#a0efee" stroke-width="6" stroke-opacity="1"></use></g></g><g><g><use xlink:href="#g1J1IE5Xgk" opacity="1" fill-opacity="0" stroke="#a0efee" stroke-width="6" stroke-opacity="1"></use></g></g><g><g><use xlink:href="#bwNbuAXes" opacity="1" fill-opacity="0" stroke="#a0efee" stroke-width="6" stroke-opacity="1"></use></g></g><g><g><use xlink:href="#c1hAnBBLEX" opacity="1" fill-opacity="0" stroke="#a0efee" stroke-width="6" stroke-opacity="1"></use></g></g><g><g><use xlink:href="#d2UBQzcYf" opacity="1" fill-opacity="0" stroke="#a0efee" stroke-width="6" stroke-opacity="1"></use></g></g><g><g><use xlink:href="#ahKxiEH1Y" opacity="1" fill-opacity="0" stroke="#a0efee" stroke-width="6" stroke-opacity="1"></use></g></g><g><g><use xlink:href="#aKtMJMKcy" opacity="1" fill-opacity="0" stroke="#a0efee" stroke-width="6" stroke-opacity="1"></use></g></g><g><g><use xlink:href="#a160TUzKub" opacity="1" fill-opacity="0" stroke="#a0efee" stroke-width="6" stroke-opacity="1"></use></g></g><g><g><use xlink:href="#ioyG4dC9" opacity="1" fill-opacity="0" stroke="#a0efee" stroke-width="6" stroke-opacity="1"></use></g></g><g><g><use xlink:href="#a31073U3Jl" opacity="1" fill-opacity="0" stroke="#a0efee" stroke-width="6" stroke-opacity="1"></use></g></g><g><g><use xlink:href="#b2y3e1hfdv" opacity="1" fill-opacity="0" stroke="#a0efee" stroke-width="6" stroke-opacity="1"></use></g></g><g><g><use xlink:href="#c1hp4RnNcq" opacity="1" fill-opacity="0" stroke="#a0efee" stroke-width="6" stroke-opacity="1"></use></g></g><g><g><use xlink:href="#b59YMfuiMa" opacity="1" fill-opacity="0" stroke="#a0efee" stroke-width="6" stroke-opacity="1"></use></g></g><g><g><use xlink:href="#b1zuWfTSPp" opacity="1" fill-opacity="0" stroke="#a0efee" stroke-width="6" stroke-opacity="1"></use></g></g><g><g><use xlink:href="#b304oTh3ja" opacity="1" fill-opacity="0" stroke="#a0efee" stroke-width="6" stroke-opacity="1"></use></g></g><g><g><use xlink:href="#c2Fp10BeVQ" opacity="1" fill-opacity="0" stroke="#a0efee" stroke-width="6" stroke-opacity="1"></use></g></g><g><g><use xlink:href="#a11j4hMGZZ" opacity="1" fill-opacity="0" stroke="#a0efee" stroke-width="6" stroke-opacity="1"></use></g></g><g><g><use xlink:href="#a8DcxnMon" opacity="1" fill-opacity="0" stroke="#a0efee" stroke-width="6" stroke-opacity="1"></use></g></g><g><g><use xlink:href="#b7iwwschQ" opacity="1" fill-opacity="0" stroke="#a0efee" stroke-width="6" stroke-opacity="1"></use></g></g><g><g><use xlink:href="#a4LHwxvtR" opacity="1" fill-opacity="0" stroke="#a0efee" stroke-width="6" stroke-opacity="1"></use></g></g><g><g><use xlink:href="#a2vsMm7TKz" opacity="1" fill-opacity="0" stroke="#a0efee" stroke-width="6" stroke-opacity="1"></use></g></g><g><g><use xlink:href="#b3kD3PBceZ" opacity="1" fill-opacity="0" stroke="#a0efee" stroke-width="6" stroke-opacity="1"></use></g></g><g><g><use xlink:href="#gZ38nlegJ" opacity="1" fill-opacity="0" stroke="#a0efee" stroke-width="6" stroke-opacity="1"></use></g></g><g><g><use xlink:href="#cQYaksG86" opacity="1" fill-opacity="0" stroke="#a0efee" stroke-width="6" stroke-opacity="1"></use></g></g><g><g><use xlink:href="#daktOa8pB" opacity="1" fill-opacity="0" stroke="#a0efee" stroke-width="6" stroke-opacity="1"></use></g></g><g><g><use xlink:href="#c1e6KYdMav" opacity="1" fill-opacity="0" stroke="#f22e46" stroke-width="4" stroke-opacity="1"></use></g></g><g><g><use xlink:href="#b2Apl2P1vq" opacity="1" fill-opacity="0" stroke="#f22e46" stroke-width="4" stroke-opacity="1"></use></g></g><g><g><use xlink:href="#b2WrTsnibu" opacity="1" fill-opacity="0" stroke="#f22e46" stroke-width="4" stroke-opacity="1"></use></g></g><g><g><use xlink:href="#c2eTJs73w8" opacity="1" fill-opacity="0" stroke="#f22e46" stroke-width="4" stroke-opacity="1"></use></g></g><g><g><use xlink:href="#b1kmyAZlru" opacity="1" fill-opacity="0" stroke="#f22e46" stroke-width="4" stroke-opacity="1"></use></g></g><g><g><use xlink:href="#c2exObzOsM" opacity="1" fill-opacity="0" stroke="#f22e46" stroke-width="4" stroke-opacity="1"></use></g></g><g><g><use xlink:href="#aao7taJov" opacity="1" fill-opacity="0" stroke="#f22e46" stroke-width="4" stroke-opacity="1"></use></g></g><g><g><use xlink:href="#asF7pqdrW" opacity="1" fill-opacity="0" stroke="#f22e46" stroke-width="4" stroke-opacity="1"></use></g></g><g><g><use xlink:href="#a7Hn58PgCg" opacity="1" fill-opacity="0" stroke="#f22e46" stroke-width="4" stroke-opacity="1"></use></g></g><g><g><use xlink:href="#c3sEsLuz6v" opacity="1" fill-opacity="0" stroke="#f22e46" stroke-width="4" stroke-opacity="1"></use></g></g><g><g><use xlink:href="#e1jiUzZNa9" opacity="1" fill-opacity="0" stroke="#f22e46" stroke-width="4" stroke-opacity="1"></use></g></g><g><g><use xlink:href="#cTH6of7D5" opacity="1" fill-opacity="0" stroke="#f22e46" stroke-width="4" stroke-opacity="1"></use></g></g><g><g><use xlink:href="#a1eCojUyjB" opacity="1" fill-opacity="0" stroke="#f22e46" stroke-width="4" stroke-opacity="1"></use></g></g><g><g><use xlink:href="#b2W34sgxh" opacity="1" fill-opacity="0" stroke="#f22e46" stroke-width="4" stroke-opacity="1"></use></g></g><g><g><use xlink:href="#ehkj03YrA" opacity="1" fill-opacity="0" stroke="#f22e46" stroke-width="4" stroke-opacity="1"></use></g></g><g><g><use xlink:href="#a1DUtQf1b5" opacity="1" fill-opacity="0" stroke="#f22e46" stroke-width="4" stroke-opacity="1"></use></g></g></g></g></svg>