<?xml version="1.0" encoding="UTF-8" standalone="no"?>
<!DOCTYPE svg PUBLIC "-//W3C//DTD SVG 1.1//EN" "http://www.w3.org/Graphics/SVG/1.1/DTD/svg11.dtd">
<svg version="1.1" xmlns="http://www.w3.org/2000/svg" xmlns:xlink="http://www.w3.org/1999/xlink" preserveAspectRatio="xMidYMid meet" viewBox="0 0 250 400" width="250" height="400"><defs><path d="M2.5 2.85L247.5 2.85L247.5 397.15L2.5 397.15L2.5 2.85Z" id="aiPNu5dlp"></path><path d="M179.23 107.83C184.75 107.83 189.23 112.3 189.23 117.83C189.23 127.7 189.23 147.3 189.23 157.17C189.23 162.7 184.75 167.17 179.23 167.17C155.54 167.17 94.46 167.17 70.77 167.17C65.25 167.17 60.77 162.7 60.77 157.17C60.77 147.3 60.77 127.7 60.77 117.83C60.77 112.3 65.25 107.83 70.77 107.83C94.46 107.83 155.54 107.83 179.23 107.83Z" id="g1yPVAT66P"></path><path d="M179.23 232.83C184.75 232.83 189.23 237.3 189.23 242.83C189.23 252.7 189.23 272.3 189.23 282.17C189.23 287.7 184.75 292.17 179.23 292.17C155.54 292.17 94.46 292.17 70.77 292.17C65.25 292.17 60.77 287.7 60.77 282.17C60.77 272.3 60.77 252.7 60.77 242.83C60.77 237.3 65.25 232.83 70.77 232.83C94.46 232.83 155.54 232.83 179.23 232.83Z" id="i17KPvPiMM"></path></defs><g><g><g><use xlink:href="#aiPNu5dlp" opacity="1" fill="#ffffff" fill-opacity="1"></use><g><use xlink:href="#aiPNu5dlp" opacity="1" fill-opacity="0" stroke="#000000" stroke-width="6" stroke-opacity="1"></use></g></g><g><use xlink:href="#g1yPVAT66P" opacity="1" fill="#a0efee" fill-opacity="0"></use><g><use xlink:href="#g1yPVAT66P" opacity="1" fill-opacity="0" stroke="#a0efee" stroke-width="4" stroke-opacity="1"></use></g></g><g><use xlink:href="#i17KPvPiMM" opacity="1" fill="#a0efee" fill-opacity="0"></use><g><use xlink:href="#i17KPvPiMM" opacity="1" fill-opacity="0" stroke="#a0efee" stroke-width="4" stroke-opacity="1"></use></g></g></g></g></svg>