<?xml version="1.0" encoding="UTF-8" standalone="no"?>
<!DOCTYPE svg PUBLIC "-//W3C//DTD SVG 1.1//EN" "http://www.w3.org/Graphics/SVG/1.1/DTD/svg11.dtd">
<svg version="1.1" xmlns="http://www.w3.org/2000/svg" xmlns:xlink="http://www.w3.org/1999/xlink" preserveAspectRatio="xMidYMid meet" viewBox="0 0 250 400" width="250" height="400"><defs><path d="M2.5 2.85L247.5 2.85L247.5 397.15L2.5 397.15L2.5 2.85Z" id="d7B7Cyald"></path><path d="M67 115.97C54.63 126.91 50.07 147.93 54.04 163.62C58.02 179.32 75.16 175.68 84.93 163.36C94.71 151.04 118.81 159.92 133.02 167.14C147.23 174.36 177.67 170.96 184.87 157.61C192.07 144.26 200.5 124.26 193.94 107.54C189.57 96.39 180.56 96.47 166.91 107.77C152.97 117.68 137.81 117.81 121.43 108.16C105.06 98.51 89.76 98.64 75.53 108.55C78.08 106.2 75.24 108.67 67 115.97Z" id="ddNm65tVO"></path><path d="M67 241.21C54.63 252.15 50.07 273.17 54.04 288.87C58.02 304.56 75.16 300.92 84.93 288.6C94.71 276.28 118.81 285.17 133.02 292.38C147.23 299.6 177.67 296.2 184.87 282.85C192.07 269.5 200.5 249.5 193.94 232.78C189.57 221.63 180.56 221.71 166.91 233.01C152.97 242.92 137.81 243.05 121.43 233.4C105.06 223.75 89.76 223.88 75.53 233.8C78.08 231.44 75.24 233.91 67 241.21Z" id="a2pfL7YXtc"></path></defs><g><g><g><use xlink:href="#d7B7Cyald" opacity="1" fill="#ffffff" fill-opacity="1"></use><g><use xlink:href="#d7B7Cyald" opacity="1" fill-opacity="0" stroke="#000000" stroke-width="6" stroke-opacity="1"></use></g></g><g><g><use xlink:href="#ddNm65tVO" opacity="1" fill-opacity="0" stroke="#bfa0ef" stroke-width="4" stroke-opacity="1"></use></g></g><g><g><use xlink:href="#a2pfL7YXtc" opacity="1" fill-opacity="0" stroke="#bfa0ef" stroke-width="4" stroke-opacity="1"></use></g></g></g></g></svg>