<?xml version="1.0" encoding="UTF-8" standalone="no"?>
<!DOCTYPE svg PUBLIC "-//W3C//DTD SVG 1.1//EN" "http://www.w3.org/Graphics/SVG/1.1/DTD/svg11.dtd">
<svg version="1.1" xmlns="http://www.w3.org/2000/svg" xmlns:xlink="http://www.w3.org/1999/xlink" preserveAspectRatio="xMidYMid meet" viewBox="0 0 250 400" width="250" height="400"><defs><path d="M2.5 2.85L247.5 2.85L247.5 397.15L2.5 397.15L2.5 2.85Z" id="bbr2NS3tPl"></path><path d="M67.52 116.49C55.16 127.44 50.59 148.45 54.57 164.15C58.54 179.85 75.68 176.2 85.46 163.88C95.24 151.56 119.33 160.45 133.54 167.67C147.76 174.89 178.2 171.48 185.39 158.13C192.59 144.79 201.03 124.79 194.47 108.06C190.1 96.91 181.09 96.99 167.44 108.29C153.49 118.2 138.33 118.33 121.96 108.68C105.58 99.04 90.28 99.17 76.05 109.08C78.61 106.73 75.77 109.2 67.52 116.49Z" id="b49F7KRveW"></path><path d="M55.75 166.48L55.54 137.58" id="aalOoy4m"></path><path d="M65.74 175.24L65.33 118.61" id="i6wkjX51e"></path><path d="M75.64 172.46L75.19 109.68" id="cjsgVKYl"></path><path d="M85.5 163.27L85.07 104.6" id="dKcnEutOG"></path><path d="M95.39 158.47L94.97 101.25" id="c12eDrPl9R"></path><path d="M105.3 157.14L104.91 102.94" id="m2UtaZQGwn"></path><path d="M115.25 160.07L114.84 104.35" id="a1jHGSUarK"></path><path d="M125.19 162.93L124.81 110.44" id="a2Qk4AdvtL"></path><path d="M135.15 167.57L134.76 115.07" id="c27T68IvJX"></path><path d="M145.1 171.86L144.69 115.57" id="d6v7uXt1Wi"></path><path d="M155.02 171.78L154.62 116.08" id="b1QlF6U3f"></path><path d="M164.93 169.67L164.5 110.1" id="dBFKJpnZ9"></path><path d="M174.83 166.05L174.37 103.84" id="b3hOTPwOw6"></path><path d="M184.69 157.7L184.28 101.08" id="a5DlymvvyD"></path><path d="M194.46 136.38L194.25 108.07" id="b1GK5APyOu"></path><path d="M67.52 241.73C55.16 252.68 50.59 273.69 54.57 289.39C58.54 305.09 75.68 301.45 85.46 289.13C95.24 276.81 119.33 285.69 133.54 292.91C147.76 300.13 178.2 296.72 185.39 283.38C192.59 270.03 201.03 250.03 194.47 233.3C190.1 222.16 181.09 222.23 167.44 233.54C153.49 243.44 138.33 243.57 121.96 233.93C105.58 224.28 90.28 224.41 76.05 234.32C78.61 231.97 75.77 234.44 67.52 241.73Z" id="c2HNpddy8"></path><path d="M55.75 291.72L55.54 262.82" id="e2BTfhRq9t"></path><path d="M65.74 300.48L65.33 243.86" id="hltArWIcL"></path><path d="M75.64 297.7L75.19 234.92" id="p37seq9Sx2"></path><path d="M85.5 288.52L85.07 229.84" id="g2qtfjoLGY"></path><path d="M95.39 283.71L94.97 226.5" id="e2fq0XjD1a"></path><path d="M105.3 282.38L104.91 228.18" id="a2GVjAHY5"></path><path d="M115.25 285.31L114.84 229.59" id="a76us9sHg"></path><path d="M125.19 288.18L124.81 235.68" id="agm9LSXPX"></path><path d="M135.15 292.81L134.76 240.31" id="c1tS0aRZ3w"></path><path d="M145.1 297.1L144.69 240.82" id="a3PDWPz2VA"></path><path d="M155.02 297.02L154.62 241.32" id="aT1U8fj3L"></path><path d="M164.93 294.91L164.5 235.34" id="aiRDZj69"></path><path d="M174.83 291.29L174.37 229.08" id="c87WfQlFPt"></path><path d="M184.69 282.95L184.28 226.32" id="a2wTc8lKQ"></path><path d="M194.46 261.63L194.25 233.31" id="a1JaGHYnr"></path></defs><g><g><g><use xlink:href="#bbr2NS3tPl" opacity="1" fill="#ffffff" fill-opacity="1"></use><g><use xlink:href="#bbr2NS3tPl" opacity="1" fill-opacity="0" stroke="#000000" stroke-width="6" stroke-opacity="1"></use></g></g><g><g><use xlink:href="#b49F7KRveW" opacity="1" fill-opacity="0" stroke="#a0efee" stroke-width="4" stroke-opacity="1"></use></g></g><g><g><use xlink:href="#aalOoy4m" opacity="1" fill-opacity="0" stroke="#a0efee" stroke-width="4" stroke-opacity="1"></use></g></g><g><g><use xlink:href="#i6wkjX51e" opacity="1" fill-opacity="0" stroke="#a0efee" stroke-width="4" stroke-opacity="1"></use></g></g><g><g><use xlink:href="#cjsgVKYl" opacity="1" fill-opacity="0" stroke="#a0efee" stroke-width="4" stroke-opacity="1"></use></g></g><g><g><use xlink:href="#dKcnEutOG" opacity="1" fill-opacity="0" stroke="#a0efee" stroke-width="4" stroke-opacity="1"></use></g></g><g><g><use xlink:href="#c12eDrPl9R" opacity="1" fill-opacity="0" stroke="#a0efee" stroke-width="4" stroke-opacity="1"></use></g></g><g><g><use xlink:href="#m2UtaZQGwn" opacity="1" fill-opacity="0" stroke="#a0efee" stroke-width="4" stroke-opacity="1"></use></g></g><g><g><use xlink:href="#a1jHGSUarK" opacity="1" fill-opacity="0" stroke="#a0efee" stroke-width="4" stroke-opacity="1"></use></g></g><g><g><use xlink:href="#a2Qk4AdvtL" opacity="1" fill-opacity="0" stroke="#a0efee" stroke-width="4" stroke-opacity="1"></use></g></g><g><g><use xlink:href="#c27T68IvJX" opacity="1" fill-opacity="0" stroke="#a0efee" stroke-width="4" stroke-opacity="1"></use></g></g><g><g><use xlink:href="#d6v7uXt1Wi" opacity="1" fill-opacity="0" stroke="#a0efee" stroke-width="4" stroke-opacity="1"></use></g></g><g><g><use xlink:href="#b1QlF6U3f" opacity="1" fill-opacity="0" stroke="#a0efee" stroke-width="4" stroke-opacity="1"></use></g></g><g><g><use xlink:href="#dBFKJpnZ9" opacity="1" fill-opacity="0" stroke="#a0efee" stroke-width="4" stroke-opacity="1"></use></g></g><g><g><use xlink:href="#b3hOTPwOw6" opacity="1" fill-opacity="0" stroke="#a0efee" stroke-width="4" stroke-opacity="1"></use></g></g><g><g><use xlink:href="#a5DlymvvyD" opacity="1" fill-opacity="0" stroke="#a0efee" stroke-width="4" stroke-opacity="1"></use></g></g><g><g><use xlink:href="#b1GK5APyOu" opacity="1" fill-opacity="0" stroke="#a0efee" stroke-width="4" stroke-opacity="1"></use></g></g><g><g><use xlink:href="#c2HNpddy8" opacity="1" fill-opacity="0" stroke="#a0efee" stroke-width="4" stroke-opacity="1"></use></g></g><g><g><use xlink:href="#e2BTfhRq9t" opacity="1" fill-opacity="0" stroke="#a0efee" stroke-width="4" stroke-opacity="1"></use></g></g><g><g><use xlink:href="#hltArWIcL" opacity="1" fill-opacity="0" stroke="#a0efee" stroke-width="4" stroke-opacity="1"></use></g></g><g><g><use xlink:href="#p37seq9Sx2" opacity="1" fill-opacity="0" stroke="#a0efee" stroke-width="4" stroke-opacity="1"></use></g></g><g><g><use xlink:href="#g2qtfjoLGY" opacity="1" fill-opacity="0" stroke="#a0efee" stroke-width="4" stroke-opacity="1"></use></g></g><g><g><use xlink:href="#e2fq0XjD1a" opacity="1" fill-opacity="0" stroke="#a0efee" stroke-width="4" stroke-opacity="1"></use></g></g><g><g><use xlink:href="#a2GVjAHY5" opacity="1" fill-opacity="0" stroke="#a0efee" stroke-width="4" stroke-opacity="1"></use></g></g><g><g><use xlink:href="#a76us9sHg" opacity="1" fill-opacity="0" stroke="#a0efee" stroke-width="4" stroke-opacity="1"></use></g></g><g><g><use xlink:href="#agm9LSXPX" opacity="1" fill-opacity="0" stroke="#a0efee" stroke-width="4" stroke-opacity="1"></use></g></g><g><g><use xlink:href="#c1tS0aRZ3w" opacity="1" fill-opacity="0" stroke="#a0efee" stroke-width="4" stroke-opacity="1"></use></g></g><g><g><use xlink:href="#a3PDWPz2VA" opacity="1" fill-opacity="0" stroke="#a0efee" stroke-width="4" stroke-opacity="1"></use></g></g><g><g><use xlink:href="#aT1U8fj3L" opacity="1" fill-opacity="0" stroke="#a0efee" stroke-width="4" stroke-opacity="1"></use></g></g><g><g><use xlink:href="#aiRDZj69" opacity="1" fill-opacity="0" stroke="#a0efee" stroke-width="4" stroke-opacity="1"></use></g></g><g><g><use xlink:href="#c87WfQlFPt" opacity="1" fill-opacity="0" stroke="#a0efee" stroke-width="4" stroke-opacity="1"></use></g></g><g><g><use xlink:href="#a2wTc8lKQ" opacity="1" fill-opacity="0" stroke="#a0efee" stroke-width="4" stroke-opacity="1"></use></g></g><g><g><use xlink:href="#a1JaGHYnr" opacity="1" fill-opacity="0" stroke="#a0efee" stroke-width="4" stroke-opacity="1"></use></g></g></g></g></svg>