<?xml version="1.0" encoding="UTF-8" standalone="no"?>
<!DOCTYPE svg PUBLIC "-//W3C//DTD SVG 1.1//EN" "http://www.w3.org/Graphics/SVG/1.1/DTD/svg11.dtd">
<svg version="1.1" xmlns="http://www.w3.org/2000/svg" xmlns:xlink="http://www.w3.org/1999/xlink" preserveAspectRatio="xMidYMid meet" viewBox="0 0 250 400" width="250" height="400"><defs><path d="M3.02 3.37L248.02 3.37L248.02 397.68L3.02 397.68L3.02 3.37Z" id="b2pF6fqRR5"></path><path d="M67.52 116.49C55.16 127.44 50.59 148.45 54.57 164.15C58.54 179.85 75.68 176.2 85.46 163.88C95.24 151.56 119.33 160.45 133.54 167.67C147.76 174.89 178.2 171.48 185.39 158.13C192.59 144.79 201.03 124.79 194.47 108.06C190.1 96.91 181.09 96.99 167.44 108.29C153.49 118.2 138.33 118.33 121.96 108.68C105.58 99.04 90.28 99.17 76.05 109.08C78.61 106.73 75.77 109.2 67.52 116.49Z" id="bCaX0pE7I"></path><path d="M55.75 166.48L55.54 137.58" id="c1iDxzkMzo"></path><path d="M65.74 175.24L65.33 118.61" id="czsLGW2aG"></path><path d="M75.64 172.46L75.19 109.68" id="a13O2ML7eA"></path><path d="M85.5 163.27L85.07 104.6" id="a37mOouxEy"></path><path d="M95.39 158.47L94.97 101.25" id="c2gFJkzak6"></path><path d="M105.3 157.14L104.91 102.94" id="aPYZORrv9"></path><path d="M115.25 160.07L114.84 104.35" id="azDeUFx4i"></path><path d="M125.19 162.93L124.81 110.44" id="b2jmcNrXbY"></path><path d="M135.15 167.57L134.76 115.07" id="b1eRC6HuS2"></path><path d="M145.1 171.86L144.69 115.57" id="a3J330ujLC"></path><path d="M155.02 171.78L154.62 116.08" id="cat2ZQVtr"></path><path d="M164.93 169.67L164.5 110.1" id="ac5eWxMcM"></path><path d="M174.83 166.05L174.37 103.84" id="b22UcMPy8Y"></path><path d="M184.69 157.7L184.28 101.08" id="b6R76UgG9u"></path><path d="M194.46 136.38L194.25 108.07" id="b65YVtsTEJ"></path><path d="M67.52 241.73C55.16 252.68 50.59 273.69 54.57 289.39C58.54 305.09 75.68 301.45 85.46 289.13C95.24 276.81 119.33 285.69 133.54 292.91C147.76 300.13 178.2 296.72 185.39 283.38C192.59 270.03 201.03 250.03 194.47 233.3C190.1 222.16 181.09 222.23 167.44 233.54C153.49 243.44 138.33 243.57 121.96 233.93C105.58 224.28 90.28 224.41 76.05 234.32C78.61 231.97 75.77 234.44 67.52 241.73Z" id="d8KBSrGNt"></path><path d="M55.75 291.72L55.54 262.82" id="c67kWB5Ef3"></path><path d="M65.74 300.48L65.33 243.86" id="d2LGPvAvL"></path><path d="M75.64 297.7L75.19 234.92" id="cM4tqOJXi"></path><path d="M85.5 288.52L85.07 229.84" id="bm6hNEycz"></path><path d="M95.39 283.71L94.97 226.5" id="chV1NMKzO"></path><path d="M105.3 282.38L104.91 228.18" id="b8WDNwD5m"></path><path d="M115.25 285.31L114.84 229.59" id="f22RzcbqMK"></path><path d="M125.19 288.18L124.81 235.68" id="a1JdnLfaRv"></path><path d="M135.15 292.81L134.76 240.31" id="ct1MAkoKG"></path><path d="M145.1 297.1L144.69 240.82" id="d7KiW7sqx"></path><path d="M155.02 297.02L154.62 241.32" id="b4TqHYGic"></path><path d="M164.93 294.91L164.5 235.34" id="bHQM9POu"></path><path d="M174.83 291.29L174.37 229.08" id="d25jbabcU0"></path><path d="M184.69 282.95L184.28 226.32" id="dZzH2jJdD"></path><path d="M194.46 261.63L194.25 233.31" id="dOStpZENx"></path></defs><g><g><g><use xlink:href="#b2pF6fqRR5" opacity="1" fill="#ffffff" fill-opacity="1"></use><g><use xlink:href="#b2pF6fqRR5" opacity="1" fill-opacity="0" stroke="#000000" stroke-width="6" stroke-opacity="1"></use></g></g><g><g><use xlink:href="#bCaX0pE7I" opacity="1" fill-opacity="0" stroke="#bfa0ef" stroke-width="4" stroke-opacity="1"></use></g></g><g><g><use xlink:href="#c1iDxzkMzo" opacity="1" fill-opacity="0" stroke="#bfa0ef" stroke-width="4" stroke-opacity="1"></use></g></g><g><g><use xlink:href="#czsLGW2aG" opacity="1" fill-opacity="0" stroke="#bfa0ef" stroke-width="4" stroke-opacity="1"></use></g></g><g><g><use xlink:href="#a13O2ML7eA" opacity="1" fill-opacity="0" stroke="#bfa0ef" stroke-width="4" stroke-opacity="1"></use></g></g><g><g><use xlink:href="#a37mOouxEy" opacity="1" fill-opacity="0" stroke="#bfa0ef" stroke-width="4" stroke-opacity="1"></use></g></g><g><g><use xlink:href="#c2gFJkzak6" opacity="1" fill-opacity="0" stroke="#bfa0ef" stroke-width="4" stroke-opacity="1"></use></g></g><g><g><use xlink:href="#aPYZORrv9" opacity="1" fill-opacity="0" stroke="#bfa0ef" stroke-width="4" stroke-opacity="1"></use></g></g><g><g><use xlink:href="#azDeUFx4i" opacity="1" fill-opacity="0" stroke="#bfa0ef" stroke-width="4" stroke-opacity="1"></use></g></g><g><g><use xlink:href="#b2jmcNrXbY" opacity="1" fill-opacity="0" stroke="#bfa0ef" stroke-width="4" stroke-opacity="1"></use></g></g><g><g><use xlink:href="#b1eRC6HuS2" opacity="1" fill-opacity="0" stroke="#bfa0ef" stroke-width="4" stroke-opacity="1"></use></g></g><g><g><use xlink:href="#a3J330ujLC" opacity="1" fill-opacity="0" stroke="#bfa0ef" stroke-width="4" stroke-opacity="1"></use></g></g><g><g><use xlink:href="#cat2ZQVtr" opacity="1" fill-opacity="0" stroke="#bfa0ef" stroke-width="4" stroke-opacity="1"></use></g></g><g><g><use xlink:href="#ac5eWxMcM" opacity="1" fill-opacity="0" stroke="#bfa0ef" stroke-width="4" stroke-opacity="1"></use></g></g><g><g><use xlink:href="#b22UcMPy8Y" opacity="1" fill-opacity="0" stroke="#bfa0ef" stroke-width="4" stroke-opacity="1"></use></g></g><g><g><use xlink:href="#b6R76UgG9u" opacity="1" fill-opacity="0" stroke="#bfa0ef" stroke-width="4" stroke-opacity="1"></use></g></g><g><g><use xlink:href="#b65YVtsTEJ" opacity="1" fill-opacity="0" stroke="#bfa0ef" stroke-width="4" stroke-opacity="1"></use></g></g><g><g><use xlink:href="#d8KBSrGNt" opacity="1" fill-opacity="0" stroke="#bfa0ef" stroke-width="4" stroke-opacity="1"></use></g></g><g><g><use xlink:href="#c67kWB5Ef3" opacity="1" fill-opacity="0" stroke="#bfa0ef" stroke-width="4" stroke-opacity="1"></use></g></g><g><g><use xlink:href="#d2LGPvAvL" opacity="1" fill-opacity="0" stroke="#bfa0ef" stroke-width="4" stroke-opacity="1"></use></g></g><g><g><use xlink:href="#cM4tqOJXi" opacity="1" fill-opacity="0" stroke="#bfa0ef" stroke-width="4" stroke-opacity="1"></use></g></g><g><g><use xlink:href="#bm6hNEycz" opacity="1" fill-opacity="0" stroke="#bfa0ef" stroke-width="4" stroke-opacity="1"></use></g></g><g><g><use xlink:href="#chV1NMKzO" opacity="1" fill-opacity="0" stroke="#bfa0ef" stroke-width="4" stroke-opacity="1"></use></g></g><g><g><use xlink:href="#b8WDNwD5m" opacity="1" fill-opacity="0" stroke="#bfa0ef" stroke-width="4" stroke-opacity="1"></use></g></g><g><g><use xlink:href="#f22RzcbqMK" opacity="1" fill-opacity="0" stroke="#bfa0ef" stroke-width="4" stroke-opacity="1"></use></g></g><g><g><use xlink:href="#a1JdnLfaRv" opacity="1" fill-opacity="0" stroke="#bfa0ef" stroke-width="4" stroke-opacity="1"></use></g></g><g><g><use xlink:href="#ct1MAkoKG" opacity="1" fill-opacity="0" stroke="#bfa0ef" stroke-width="4" stroke-opacity="1"></use></g></g><g><g><use xlink:href="#d7KiW7sqx" opacity="1" fill-opacity="0" stroke="#bfa0ef" stroke-width="4" stroke-opacity="1"></use></g></g><g><g><use xlink:href="#b4TqHYGic" opacity="1" fill-opacity="0" stroke="#bfa0ef" stroke-width="4" stroke-opacity="1"></use></g></g><g><g><use xlink:href="#bHQM9POu" opacity="1" fill-opacity="0" stroke="#bfa0ef" stroke-width="4" stroke-opacity="1"></use></g></g><g><g><use xlink:href="#d25jbabcU0" opacity="1" fill-opacity="0" stroke="#bfa0ef" stroke-width="4" stroke-opacity="1"></use></g></g><g><g><use xlink:href="#dZzH2jJdD" opacity="1" fill-opacity="0" stroke="#bfa0ef" stroke-width="4" stroke-opacity="1"></use></g></g><g><g><use xlink:href="#dOStpZENx" opacity="1" fill-opacity="0" stroke="#bfa0ef" stroke-width="4" stroke-opacity="1"></use></g></g></g></g></svg>