<?xml version="1.0" encoding="UTF-8" standalone="no"?>
<!DOCTYPE svg PUBLIC "-//W3C//DTD SVG 1.1//EN" "http://www.w3.org/Graphics/SVG/1.1/DTD/svg11.dtd">
<svg version="1.1" xmlns="http://www.w3.org/2000/svg" xmlns:xlink="http://www.w3.org/1999/xlink" preserveAspectRatio="xMidYMid meet" viewBox="0 0 250 400" width="250" height="400"><defs><path d="M2.5 2.85L247.5 2.85L247.5 397.15L2.5 397.15L2.5 2.85Z" id="a8ZaLJcmM"></path><path d="M179.23 170.33C184.75 170.33 189.23 174.8 189.23 180.33C189.23 190.2 189.23 209.8 189.23 219.67C189.23 225.2 184.75 229.67 179.23 229.67C155.54 229.67 94.46 229.67 70.77 229.67C65.25 229.67 60.77 225.2 60.77 219.67C60.77 209.8 60.77 190.2 60.77 180.33C60.77 174.8 65.25 170.33 70.77 170.33C94.46 170.33 155.54 170.33 179.23 170.33Z" id="b1oYnJRsRs"></path><path d="M179.23 70.33C184.75 70.33 189.23 74.8 189.23 80.33C189.23 90.2 189.23 109.8 189.23 119.67C189.23 125.2 184.75 129.67 179.23 129.67C155.54 129.67 94.46 129.67 70.77 129.67C65.25 129.67 60.77 125.2 60.77 119.67C60.77 109.8 60.77 90.2 60.77 80.33C60.77 74.8 65.25 70.33 70.77 70.33C94.46 70.33 155.54 70.33 179.23 70.33Z" id="bPv3UiWe9"></path><path d="M179.23 270.33C184.75 270.33 189.23 274.8 189.23 280.33C189.23 290.2 189.23 309.8 189.23 319.67C189.23 325.2 184.75 329.67 179.23 329.67C155.54 329.67 94.46 329.67 70.77 329.67C65.25 329.67 60.77 325.2 60.77 319.67C60.77 309.8 60.77 290.2 60.77 280.33C60.77 274.8 65.25 270.33 70.77 270.33C94.46 270.33 155.54 270.33 179.23 270.33Z" id="cnQhQidpx"></path></defs><g><g><g><use xlink:href="#a8ZaLJcmM" opacity="1" fill="#ffffff" fill-opacity="1"></use><g><use xlink:href="#a8ZaLJcmM" opacity="1" fill-opacity="0" stroke="#000000" stroke-width="6" stroke-opacity="1"></use></g></g><g><use xlink:href="#b1oYnJRsRs" opacity="1" fill="#bfa0ef" fill-opacity="0"></use><g><use xlink:href="#b1oYnJRsRs" opacity="1" fill-opacity="0" stroke="#bfa0ef" stroke-width="4" stroke-opacity="1"></use></g></g><g><use xlink:href="#bPv3UiWe9" opacity="1" fill="#bfa0ef" fill-opacity="0"></use><g><use xlink:href="#bPv3UiWe9" opacity="1" fill-opacity="0" stroke="#bfa0ef" stroke-width="4" stroke-opacity="1"></use></g></g><g><use xlink:href="#cnQhQidpx" opacity="1" fill="#bfa0ef" fill-opacity="0"></use><g><use xlink:href="#cnQhQidpx" opacity="1" fill-opacity="0" stroke="#bfa0ef" stroke-width="4" stroke-opacity="1"></use></g></g></g></g></svg>