<?xml version="1.0" encoding="UTF-8" standalone="no"?>
<!DOCTYPE svg PUBLIC "-//W3C//DTD SVG 1.1//EN" "http://www.w3.org/Graphics/SVG/1.1/DTD/svg11.dtd">
<svg version="1.1" xmlns="http://www.w3.org/2000/svg" xmlns:xlink="http://www.w3.org/1999/xlink" preserveAspectRatio="xMidYMid meet" viewBox="0 0 250 400" width="250" height="400"><defs><path d="M2.5 2.85L247.5 2.85L247.5 397.15L2.5 397.15L2.5 2.85Z" id="b3ZOKC39w4"></path><path d="M67.52 81.13C55.16 92.07 50.59 113.09 54.57 128.78C58.54 144.48 75.68 140.84 85.46 128.52C95.24 116.2 119.33 125.08 133.54 132.3C147.76 139.52 178.2 136.11 185.39 122.77C192.59 109.42 201.03 89.42 194.47 72.7C190.1 61.55 181.09 61.62 167.44 72.93C153.49 82.84 138.33 82.97 121.96 73.32C105.58 63.67 90.28 63.8 76.05 73.71C78.61 71.36 75.77 73.83 67.52 81.13Z" id="a3HG3h9uz2"></path><path d="M55.75 131.11L55.54 102.21" id="e1ojgMOy0k"></path><path d="M65.74 139.88L65.33 83.25" id="d1TS7JSAC0"></path><path d="M75.64 137.09L75.19 74.32" id="bjOPTDtW6"></path><path d="M85.5 127.91L85.07 69.24" id="b2niwd9NOE"></path><path d="M95.39 123.1L94.97 65.89" id="bw0iZcDFy"></path><path d="M105.3 121.78L104.91 67.57" id="chO7k8fY4"></path><path d="M115.25 124.7L114.84 68.98" id="a2PPKeTKMx"></path><path d="M125.19 127.57L124.81 75.07" id="k4l2fIvKd"></path><path d="M135.15 132.2L134.76 79.7" id="e2ZmYhkZv2"></path><path d="M145.1 136.5L144.69 80.21" id="akqHfCctw"></path><path d="M155.02 136.41L154.62 80.71" id="a5TiJZ0RK"></path><path d="M164.93 134.31L164.5 74.73" id="a7Ei3IpItW"></path><path d="M174.83 130.68L174.37 68.47" id="a1sr0MDDHq"></path><path d="M184.69 122.34L184.28 65.71" id="b2BmCiv4Gp"></path><path d="M194.46 101.02L194.25 72.71" id="aeXdIWC8E"></path><path d="M67.52 181.17C55.16 192.11 50.59 213.12 54.57 228.82C58.54 244.52 75.68 240.88 85.46 228.56C95.24 216.24 119.33 225.12 133.54 232.34C147.76 239.56 178.2 236.15 185.39 222.81C192.59 209.46 201.03 189.46 194.47 172.74C190.1 161.59 181.09 161.66 167.44 172.97C153.49 182.88 138.33 183.01 121.96 173.36C105.58 163.71 90.28 163.84 76.05 173.75C78.61 171.4 75.77 173.87 67.52 181.17Z" id="aDOW0VxhR"></path><path d="M55.75 231.15L55.54 202.25" id="a7T04R4y7c"></path><path d="M65.74 239.91L65.33 183.29" id="c4qVypMCQv"></path><path d="M75.64 237.13L75.19 174.35" id="b1ttKXlqZs"></path><path d="M85.5 227.95L85.07 169.27" id="e4oUsO0k9X"></path><path d="M95.39 223.14L94.97 165.93" id="a2KLDReJE"></path><path d="M105.3 221.82L104.91 167.61" id="d4SJHVBro9"></path><path d="M115.25 224.74L114.84 169.02" id="c3zr4yp28E"></path><path d="M125.19 227.61L124.81 175.11" id="arLYIdifi"></path><path d="M135.15 232.24L134.76 179.74" id="d1eQZCUOFZ"></path><path d="M145.1 236.54L144.69 180.25" id="e9pjvL59A"></path><path d="M155.02 236.45L154.62 180.75" id="b56oY2xmy"></path><path d="M164.93 234.35L164.5 174.77" id="iszAEr6dK"></path><path d="M174.83 230.72L174.37 168.51" id="hTdIwuDbN"></path><path d="M184.69 222.38L184.28 165.75" id="b5hcWBv47"></path><path d="M194.46 201.06L194.25 172.74" id="c3ysB06lXL"></path><path d="M55.75 329.22L55.54 300.32" id="c41N679ep"></path><path d="M65.74 337.98L65.33 281.36" id="a2gSwb4MHq"></path><path d="M75.64 335.2L75.19 272.42" id="k3CBKd3Ni"></path><path d="M85.5 326.02L85.07 267.34" id="azVtNcYcW"></path><path d="M95.39 321.21L94.97 264" id="aMNKCt8YZ"></path><path d="M105.3 319.88L104.91 265.68" id="b1PkVOUmo"></path><path d="M115.24 322.81L114.84 267.09" id="k2LWNPml4y"></path><path d="M125.19 325.68L124.81 273.18" id="aLGVlqHw"></path><path d="M135.14 330.31L134.76 277.81" id="a2eovRXxS9"></path><path d="M145.1 334.6L144.69 278.32" id="f13Huq0kEp"></path><path d="M155.02 334.52L154.62 278.82" id="df3fVWPZl"></path><path d="M164.93 332.41L164.5 272.84" id="ohWvVUoeV"></path><path d="M174.83 328.79L174.37 266.58" id="b1VipOKdTJ"></path><path d="M184.69 320.45L184.28 263.82" id="f3YBpyzXo"></path><path d="M194.46 299.13L194.25 270.81" id="a2hjpf5xQr"></path><path d="M185.75 262.57L186.38 262.67L187 262.81L187.59 263L188.17 263.22L188.74 263.49L189.28 263.8L189.81 264.15L190.32 264.55L190.81 264.98L191.29 265.46L191.75 265.98L192.19 266.54L192.61 267.15L193.02 267.8L193.41 268.49L193.78 269.22L194.13 269.99L194.47 270.8L194.93 272.06L195.34 273.34L195.7 274.62L196 275.91L196.26 277.21L196.46 278.52L196.62 279.83L196.73 281.15L196.8 282.48L196.83 283.81L196.81 285.14L196.76 286.47L196.67 287.81L196.54 289.14L196.38 290.48L196.18 291.81L195.95 293.14L195.69 294.47L195.4 295.79L195.09 297.11L194.75 298.42L194.38 299.72L193.99 301.02L193.58 302.3L193.16 303.58L192.71 304.84L192.24 306.09L191.77 307.33L191.27 308.56L190.77 309.77L190.25 310.97L189.73 312.15L189.2 313.31L188.66 314.45L188.12 315.58L187.57 316.68L187.03 317.76L186.48 318.82L185.93 319.86L185.39 320.88L184.81 321.86L184.14 322.8L183.4 323.71L182.57 324.58L181.68 325.41L180.72 326.21L179.69 326.97L178.6 327.68L177.45 328.37L176.25 329.01L175 329.62L173.7 330.18L172.36 330.71L170.99 331.21L169.57 331.66L168.12 332.08L166.65 332.45L165.15 332.79L163.63 333.09L162.1 333.35L160.55 333.58L158.99 333.76L157.43 333.91L155.86 334.02L154.3 334.08L152.74 334.11L151.19 334.1L149.65 334.06L148.13 333.97L146.63 333.84L145.15 333.68L143.7 333.47L142.28 333.23L140.9 332.94L139.56 332.62L138.25 332.26L137 331.85L135.79 331.41L134.64 330.93L133.54 330.41L132.46 329.87L131.34 329.32L130.19 328.77L129.01 328.22L127.8 327.67L126.56 327.13L125.3 326.59L124.02 326.06L122.72 325.54L121.41 325.04L120.08 324.55L118.74 324.08L117.39 323.63L116.03 323.2L114.66 322.79L113.29 322.41L111.93 322.06L110.56 321.74L109.2 321.45L107.84 321.19L106.49 320.97L105.15 320.79L103.83 320.65L102.52 320.56L101.22 320.51L99.95 320.5L98.7 320.55L97.47 320.65L96.27 320.8L95.1 321L93.96 321.27L92.85 321.6L91.78 321.98L90.74 322.44L89.75 322.96L88.8 323.54L87.89 324.2L87.03 324.93L86.22 325.74L85.46 326.63L84.71 327.53L83.94 328.41L83.14 329.25L82.32 330.05L81.49 330.82L80.63 331.55L79.76 332.24L78.87 332.89L77.97 333.5L77.06 334.07L76.15 334.6L75.22 335.08L74.3 335.52L73.37 335.92L72.43 336.26L71.5 336.56L70.58 336.81L69.66 337.02L68.74 337.17L67.84 337.27L66.94 337.31L66.06 337.31L65.19 337.24L64.34 337.13L63.51 336.95L62.7 336.72L61.91 336.43L61.14 336.09L60.41 335.68L59.7 335.2L59.01 334.67L58.37 334.07L57.75 333.41L57.17 332.69L56.63 331.89L56.13 331.03L55.67 330.1L55.26 329.1L54.89 328.03L54.57 326.89L54.28 325.7L54.03 324.5L53.82 323.28L53.63 322.04L53.47 320.79L53.35 319.52L53.26 318.24L53.2 316.96L53.17 315.66L53.17 314.36L53.21 313.05L53.27 311.74L53.37 310.43L53.5 309.11L53.66 307.8L53.85 306.49L54.07 305.18L54.32 303.87L54.6 302.57L54.92 301.28L55.26 300L55.63 298.72L56.04 297.46L56.48 296.22L56.94 294.98L57.44 293.77L57.96 292.57L58.52 291.39L59.11 290.23L59.72 289.09L60.37 287.98L61.04 286.89L61.75 285.82L62.49 284.79L63.25 283.78L64.05 282.8L64.87 281.86L65.73 280.95L66.61 280.07L67.52 279.23L68.13 278.7L68.72 278.18L69.29 277.67L69.83 277.19L70.36 276.72L70.87 276.28L71.35 275.85L71.82 275.44L72.27 275.04L72.69 274.67L73.1 274.31L73.48 273.97L73.85 273.65L74.19 273.35L74.52 273.06L74.82 272.8L75.1 272.55L75.37 272.32L75.61 272.1L75.84 271.91L76.04 271.73L76.22 271.57L76.38 271.43L76.53 271.31L76.65 271.21L76.75 271.12L76.83 271.05L76.89 271L76.93 270.97L76.95 270.96L76.96 270.96L76.94 270.99L76.9 271.03L76.84 271.09L76.76 271.16L76.65 271.26L76.53 271.37L76.39 271.5L76.23 271.65L76.05 271.82L77.12 271.09L78.19 270.41L79.27 269.75L80.35 269.14L81.44 268.56L82.53 268.02L83.62 267.52L84.72 267.05L85.82 266.62L86.92 266.22L88.03 265.86L89.15 265.54L90.26 265.26L91.39 265.01L92.51 264.8L93.64 264.62L94.77 264.48L95.91 264.38L97.05 264.32L98.2 264.29L99.35 264.3L100.5 264.34L101.66 264.42L102.82 264.54L103.99 264.7L105.16 264.89L106.33 265.12L107.51 265.38L108.69 265.68L109.88 266.02L111.07 266.4L112.26 266.81L113.46 267.26L114.66 267.74L115.87 268.27L117.08 268.83L118.29 269.42L119.51 270.05L120.73 270.72L121.96 271.43L123.18 272.13L124.41 272.8L125.62 273.43L126.83 274.03L128.04 274.59L129.24 275.11L130.44 275.59L131.64 276.04L132.83 276.45L134.01 276.83L135.19 277.17L136.37 277.47L137.54 277.73L138.71 277.96L139.87 278.16L141.02 278.31L142.18 278.43L143.33 278.51L144.47 278.56L145.61 278.56L146.74 278.54L147.87 278.47L149 278.37L150.12 278.23L151.24 278.06L152.35 277.85L153.46 277.6L154.56 277.31L155.66 276.99L156.75 276.63L157.84 276.24L158.92 275.81L160 275.34L161.08 274.83L162.15 274.29L163.22 273.72L164.28 273.1L165.34 272.45L166.39 271.76L167.44 271.04L168.45 270.21L169.45 269.42L170.43 268.68L171.39 267.98L172.34 267.32L173.27 266.71L174.18 266.13L175.07 265.6L175.95 265.11L176.8 264.66L177.65 264.26L178.47 263.89L179.28 263.57L180.06 263.29L180.84 263.06L181.59 262.86L182.33 262.71L183.05 262.6L183.75 262.53L184.43 262.5L185.1 262.52L185.75 262.57Z" id="d3BL4iu4w9"></path></defs><g><g><g><use xlink:href="#b3ZOKC39w4" opacity="1" fill="#ffffff" fill-opacity="1"></use><g><use xlink:href="#b3ZOKC39w4" opacity="1" fill-opacity="0" stroke="#000000" stroke-width="6" stroke-opacity="1"></use></g></g><g><use xlink:href="#a3HG3h9uz2" opacity="1" fill="#bfa0ef" fill-opacity="1"></use><g><use xlink:href="#a3HG3h9uz2" opacity="1" fill-opacity="0" stroke="#bfa0ef" stroke-width="4" stroke-opacity="1"></use></g></g><g><use xlink:href="#e1ojgMOy0k" opacity="1" fill="#bfa0ef" fill-opacity="1"></use><g><use xlink:href="#e1ojgMOy0k" opacity="1" fill-opacity="0" stroke="#bfa0ef" stroke-width="4" stroke-opacity="1"></use></g></g><g><use xlink:href="#d1TS7JSAC0" opacity="1" fill="#bfa0ef" fill-opacity="1"></use><g><use xlink:href="#d1TS7JSAC0" opacity="1" fill-opacity="0" stroke="#bfa0ef" stroke-width="4" stroke-opacity="1"></use></g></g><g><use xlink:href="#bjOPTDtW6" opacity="1" fill="#bfa0ef" fill-opacity="1"></use><g><use xlink:href="#bjOPTDtW6" opacity="1" fill-opacity="0" stroke="#bfa0ef" stroke-width="4" stroke-opacity="1"></use></g></g><g><use xlink:href="#b2niwd9NOE" opacity="1" fill="#bfa0ef" fill-opacity="1"></use><g><use xlink:href="#b2niwd9NOE" opacity="1" fill-opacity="0" stroke="#bfa0ef" stroke-width="4" stroke-opacity="1"></use></g></g><g><use xlink:href="#bw0iZcDFy" opacity="1" fill="#bfa0ef" fill-opacity="1"></use><g><use xlink:href="#bw0iZcDFy" opacity="1" fill-opacity="0" stroke="#bfa0ef" stroke-width="4" stroke-opacity="1"></use></g></g><g><use xlink:href="#chO7k8fY4" opacity="1" fill="#bfa0ef" fill-opacity="1"></use><g><use xlink:href="#chO7k8fY4" opacity="1" fill-opacity="0" stroke="#bfa0ef" stroke-width="4" stroke-opacity="1"></use></g></g><g><use xlink:href="#a2PPKeTKMx" opacity="1" fill="#bfa0ef" fill-opacity="1"></use><g><use xlink:href="#a2PPKeTKMx" opacity="1" fill-opacity="0" stroke="#bfa0ef" stroke-width="4" stroke-opacity="1"></use></g></g><g><use xlink:href="#k4l2fIvKd" opacity="1" fill="#bfa0ef" fill-opacity="1"></use><g><use xlink:href="#k4l2fIvKd" opacity="1" fill-opacity="0" stroke="#bfa0ef" stroke-width="4" stroke-opacity="1"></use></g></g><g><use xlink:href="#e2ZmYhkZv2" opacity="1" fill="#bfa0ef" fill-opacity="1"></use><g><use xlink:href="#e2ZmYhkZv2" opacity="1" fill-opacity="0" stroke="#bfa0ef" stroke-width="4" stroke-opacity="1"></use></g></g><g><use xlink:href="#akqHfCctw" opacity="1" fill="#bfa0ef" fill-opacity="1"></use><g><use xlink:href="#akqHfCctw" opacity="1" fill-opacity="0" stroke="#bfa0ef" stroke-width="4" stroke-opacity="1"></use></g></g><g><use xlink:href="#a5TiJZ0RK" opacity="1" fill="#bfa0ef" fill-opacity="1"></use><g><use xlink:href="#a5TiJZ0RK" opacity="1" fill-opacity="0" stroke="#bfa0ef" stroke-width="4" stroke-opacity="1"></use></g></g><g><use xlink:href="#a7Ei3IpItW" opacity="1" fill="#bfa0ef" fill-opacity="1"></use><g><use xlink:href="#a7Ei3IpItW" opacity="1" fill-opacity="0" stroke="#bfa0ef" stroke-width="4" stroke-opacity="1"></use></g></g><g><use xlink:href="#a1sr0MDDHq" opacity="1" fill="#bfa0ef" fill-opacity="1"></use><g><use xlink:href="#a1sr0MDDHq" opacity="1" fill-opacity="0" stroke="#bfa0ef" stroke-width="4" stroke-opacity="1"></use></g></g><g><use xlink:href="#b2BmCiv4Gp" opacity="1" fill="#bfa0ef" fill-opacity="1"></use><g><use xlink:href="#b2BmCiv4Gp" opacity="1" fill-opacity="0" stroke="#bfa0ef" stroke-width="4" stroke-opacity="1"></use></g></g><g><use xlink:href="#aeXdIWC8E" opacity="1" fill="#bfa0ef" fill-opacity="1"></use><g><use xlink:href="#aeXdIWC8E" opacity="1" fill-opacity="0" stroke="#bfa0ef" stroke-width="4" stroke-opacity="1"></use></g></g><g><use xlink:href="#aDOW0VxhR" opacity="1" fill="#bfa0ef" fill-opacity="1"></use><g><use xlink:href="#aDOW0VxhR" opacity="1" fill-opacity="0" stroke="#bfa0ef" stroke-width="4" stroke-opacity="1"></use></g></g><g><use xlink:href="#a7T04R4y7c" opacity="1" fill="#bfa0ef" fill-opacity="1"></use><g><use xlink:href="#a7T04R4y7c" opacity="1" fill-opacity="0" stroke="#bfa0ef" stroke-width="4" stroke-opacity="1"></use></g></g><g><use xlink:href="#c4qVypMCQv" opacity="1" fill="#bfa0ef" fill-opacity="1"></use><g><use xlink:href="#c4qVypMCQv" opacity="1" fill-opacity="0" stroke="#bfa0ef" stroke-width="4" stroke-opacity="1"></use></g></g><g><use xlink:href="#b1ttKXlqZs" opacity="1" fill="#bfa0ef" fill-opacity="1"></use><g><use xlink:href="#b1ttKXlqZs" opacity="1" fill-opacity="0" stroke="#bfa0ef" stroke-width="4" stroke-opacity="1"></use></g></g><g><use xlink:href="#e4oUsO0k9X" opacity="1" fill="#bfa0ef" fill-opacity="1"></use><g><use xlink:href="#e4oUsO0k9X" opacity="1" fill-opacity="0" stroke="#bfa0ef" stroke-width="4" stroke-opacity="1"></use></g></g><g><use xlink:href="#a2KLDReJE" opacity="1" fill="#bfa0ef" fill-opacity="1"></use><g><use xlink:href="#a2KLDReJE" opacity="1" fill-opacity="0" stroke="#bfa0ef" stroke-width="4" stroke-opacity="1"></use></g></g><g><use xlink:href="#d4SJHVBro9" opacity="1" fill="#bfa0ef" fill-opacity="1"></use><g><use xlink:href="#d4SJHVBro9" opacity="1" fill-opacity="0" stroke="#bfa0ef" stroke-width="4" stroke-opacity="1"></use></g></g><g><use xlink:href="#c3zr4yp28E" opacity="1" fill="#bfa0ef" fill-opacity="1"></use><g><use xlink:href="#c3zr4yp28E" opacity="1" fill-opacity="0" stroke="#bfa0ef" stroke-width="4" stroke-opacity="1"></use></g></g><g><use xlink:href="#arLYIdifi" opacity="1" fill="#bfa0ef" fill-opacity="1"></use><g><use xlink:href="#arLYIdifi" opacity="1" fill-opacity="0" stroke="#bfa0ef" stroke-width="4" stroke-opacity="1"></use></g></g><g><use xlink:href="#d1eQZCUOFZ" opacity="1" fill="#bfa0ef" fill-opacity="1"></use><g><use xlink:href="#d1eQZCUOFZ" opacity="1" fill-opacity="0" stroke="#bfa0ef" stroke-width="4" stroke-opacity="1"></use></g></g><g><use xlink:href="#e9pjvL59A" opacity="1" fill="#bfa0ef" fill-opacity="1"></use><g><use xlink:href="#e9pjvL59A" opacity="1" fill-opacity="0" stroke="#bfa0ef" stroke-width="4" stroke-opacity="1"></use></g></g><g><use xlink:href="#b56oY2xmy" opacity="1" fill="#bfa0ef" fill-opacity="1"></use><g><use xlink:href="#b56oY2xmy" opacity="1" fill-opacity="0" stroke="#bfa0ef" stroke-width="4" stroke-opacity="1"></use></g></g><g><use xlink:href="#iszAEr6dK" opacity="1" fill="#bfa0ef" fill-opacity="1"></use><g><use xlink:href="#iszAEr6dK" opacity="1" fill-opacity="0" stroke="#bfa0ef" stroke-width="4" stroke-opacity="1"></use></g></g><g><use xlink:href="#hTdIwuDbN" opacity="1" fill="#bfa0ef" fill-opacity="1"></use><g><use xlink:href="#hTdIwuDbN" opacity="1" fill-opacity="0" stroke="#bfa0ef" stroke-width="4" stroke-opacity="1"></use></g></g><g><use xlink:href="#b5hcWBv47" opacity="1" fill="#bfa0ef" fill-opacity="1"></use><g><use xlink:href="#b5hcWBv47" opacity="1" fill-opacity="0" stroke="#bfa0ef" stroke-width="4" stroke-opacity="1"></use></g></g><g><use xlink:href="#c3ysB06lXL" opacity="1" fill="#bfa0ef" fill-opacity="1"></use><g><use xlink:href="#c3ysB06lXL" opacity="1" fill-opacity="0" stroke="#bfa0ef" stroke-width="4" stroke-opacity="1"></use></g></g><g><use xlink:href="#c41N679ep" opacity="1" fill="#bfa0ef" fill-opacity="1"></use><g><use xlink:href="#c41N679ep" opacity="1" fill-opacity="0" stroke="#bfa0ef" stroke-width="4" stroke-opacity="1"></use></g></g><g><use xlink:href="#a2gSwb4MHq" opacity="1" fill="#bfa0ef" fill-opacity="1"></use><g><use xlink:href="#a2gSwb4MHq" opacity="1" fill-opacity="0" stroke="#bfa0ef" stroke-width="4" stroke-opacity="1"></use></g></g><g><use xlink:href="#k3CBKd3Ni" opacity="1" fill="#bfa0ef" fill-opacity="1"></use><g><use xlink:href="#k3CBKd3Ni" opacity="1" fill-opacity="0" stroke="#bfa0ef" stroke-width="4" stroke-opacity="1"></use></g></g><g><use xlink:href="#azVtNcYcW" opacity="1" fill="#bfa0ef" fill-opacity="1"></use><g><use xlink:href="#azVtNcYcW" opacity="1" fill-opacity="0" stroke="#bfa0ef" stroke-width="4" stroke-opacity="1"></use></g></g><g><use xlink:href="#aMNKCt8YZ" opacity="1" fill="#bfa0ef" fill-opacity="1"></use><g><use xlink:href="#aMNKCt8YZ" opacity="1" fill-opacity="0" stroke="#bfa0ef" stroke-width="4" stroke-opacity="1"></use></g></g><g><use xlink:href="#b1PkVOUmo" opacity="1" fill="#bfa0ef" fill-opacity="1"></use><g><use xlink:href="#b1PkVOUmo" opacity="1" fill-opacity="0" stroke="#bfa0ef" stroke-width="4" stroke-opacity="1"></use></g></g><g><use xlink:href="#k2LWNPml4y" opacity="1" fill="#bfa0ef" fill-opacity="1"></use><g><use xlink:href="#k2LWNPml4y" opacity="1" fill-opacity="0" stroke="#bfa0ef" stroke-width="4" stroke-opacity="1"></use></g></g><g><use xlink:href="#aLGVlqHw" opacity="1" fill="#bfa0ef" fill-opacity="1"></use><g><use xlink:href="#aLGVlqHw" opacity="1" fill-opacity="0" stroke="#bfa0ef" stroke-width="4" stroke-opacity="1"></use></g></g><g><use xlink:href="#a2eovRXxS9" opacity="1" fill="#bfa0ef" fill-opacity="1"></use><g><use xlink:href="#a2eovRXxS9" opacity="1" fill-opacity="0" stroke="#bfa0ef" stroke-width="4" stroke-opacity="1"></use></g></g><g><use xlink:href="#f13Huq0kEp" opacity="1" fill="#bfa0ef" fill-opacity="1"></use><g><use xlink:href="#f13Huq0kEp" opacity="1" fill-opacity="0" stroke="#bfa0ef" stroke-width="4" stroke-opacity="1"></use></g></g><g><use xlink:href="#df3fVWPZl" opacity="1" fill="#bfa0ef" fill-opacity="1"></use><g><use xlink:href="#df3fVWPZl" opacity="1" fill-opacity="0" stroke="#bfa0ef" stroke-width="4" stroke-opacity="1"></use></g></g><g><use xlink:href="#ohWvVUoeV" opacity="1" fill="#bfa0ef" fill-opacity="1"></use><g><use xlink:href="#ohWvVUoeV" opacity="1" fill-opacity="0" stroke="#bfa0ef" stroke-width="4" stroke-opacity="1"></use></g></g><g><use xlink:href="#b1VipOKdTJ" opacity="1" fill="#bfa0ef" fill-opacity="1"></use><g><use xlink:href="#b1VipOKdTJ" opacity="1" fill-opacity="0" stroke="#bfa0ef" stroke-width="4" stroke-opacity="1"></use></g></g><g><use xlink:href="#f3YBpyzXo" opacity="1" fill="#bfa0ef" fill-opacity="1"></use><g><use xlink:href="#f3YBpyzXo" opacity="1" fill-opacity="0" stroke="#bfa0ef" stroke-width="4" stroke-opacity="1"></use></g></g><g><use xlink:href="#a2hjpf5xQr" opacity="1" fill="#bfa0ef" fill-opacity="1"></use><g><use xlink:href="#a2hjpf5xQr" opacity="1" fill-opacity="0" stroke="#bfa0ef" stroke-width="4" stroke-opacity="1"></use></g></g><g><use xlink:href="#d3BL4iu4w9" opacity="1" fill="#bfa0ef" fill-opacity="1"></use><g><use xlink:href="#d3BL4iu4w9" opacity="1" fill-opacity="0" stroke="#bfa0ef" stroke-width="4" stroke-opacity="1"></use></g></g></g></g></svg>